<?xml version="1.0" encoding="UTF-8" standalone="no"?>
<svg
   width="1200pt"
   height="1200pt"
   version="1.1"
   viewBox="0 0 1200 1200"
   id="svg65"
   sodipodi:docname="rcr.gnome.svg"
   inkscape:version="1.1.2 (0a00cf5339, 2022-02-04)"
   xmlns:inkscape="http://www.inkscape.org/namespaces/inkscape"
   xmlns:sodipodi="http://sodipodi.sourceforge.net/DTD/sodipodi-0.dtd"
   xmlns="http://www.w3.org/2000/svg"
   xmlns:svg="http://www.w3.org/2000/svg">
  <defs
     id="defs69" />
  <sodipodi:namedview
     id="namedview67"
     pagecolor="#ffffff"
     bordercolor="#666666"
     borderopacity="1.0"
     inkscape:pageshadow="2"
     inkscape:pageopacity="0.0"
     inkscape:pagecheckerboard="0"
     inkscape:document-units="pt"
     showgrid="false"
     inkscape:zoom="0.504375"
     inkscape:cx="800"
     inkscape:cy="800"
     inkscape:window-width="1846"
     inkscape:window-height="1016"
     inkscape:window-x="0"
     inkscape:window-y="0"
     inkscape:window-maximized="1"
     inkscape:current-layer="svg65" />
  <path
     d="m912.21 270.93-312.21-114.79-312.47 114.7-11.531 4.2227v651.27l312 113.2 12 4.3555 12-4.3555 312-113.2v-651.07zm-12.215 213.56-22.801 8.2695-265.2 96.215v-183.59l288-104.06zm-288 130.02 288-104.06v189.9l-288 104.5zm-12-432.8 277.2 101.91-277.2 100.57-147.56-53.531-129.89-47.137zm-94.848 193.62 82.848 30.059v183.59l-135.56-49.176-129.89-47.137-22.551-8.1719v-183.59zm82.848 429.52-288-104.48v-190.32l205.15 74.426 82.848 30.047zm0 209.14-288-104.5v-183.6l288 104.48zm312-104.5-288 104.48v-183.6l288-104.48z"
     id="path63" />
  <path
     style="fill:#008000;stroke-width:1.98265"
     d="M 583.89095,1312.4606 369.76456,1234.5364 V 800.92992 367.32346 L 584.88228,288.3712 800,209.41893 l 205.2045,75.43536 c 112.8624,41.48945 209.8904,77.18598 215.6178,79.32561 l 10.4134,3.89024 -0.5002,433.24483 -0.5001,433.24483 -215.1177,78.0853 c -118.31473,42.9469 -215.5638,78.0075 -216.10903,77.9125 -0.54523,-0.095 -97.3482,-35.2386 -215.11772,-78.097 z m 201.23296,-82.7208 -0.006,-123.4201 L 594.2939,1037.128 C 489.34045,999.0725 402.3544,967.52722 400.99133,967.02735 c -1.96592,-0.72093 -2.47705,24.65259 -2.47219,122.72335 l 0.006,123.6322 191.81543,69.7496 c 105.49849,38.3623 192.48458,69.8122 193.30242,69.8885 0.81785,0.076 1.4842,-55.4002 1.48079,-123.2812 z m 225.52739,52.8231 190.8248,-69.18 0.01,-123.6322 c 0,-98.07052 -0.507,-123.44428 -2.4729,-122.72335 -1.3631,0.49987 -88.3492,32.04515 -193.3024,70.10065 l -190.82448,69.1917 -0.006,123.6322 c -0.004,98.077 0.50607,123.4419 2.47211,122.7116 1.36307,-0.5063 88.34948,-32.0516 193.30317,-70.1006 z M 785.13011,946.06664 V 818.52735 L 594.29988,749.42737 C 489.34325,711.42239 402.3544,679.94639 400.99133,679.4807 c -1.96579,-0.6716 -2.47832,25.59887 -2.47832,127.03025 v 127.87694 l 22.30483,8.16002 c 147.67552,54.02567 359.895,130.81149 361.83396,130.91969 1.9584,0.1093 2.47831,-26.6175 2.47831,-127.40096 z m 216.23239,61.06376 c 100.7996,-36.56148 187.0638,-67.90946 191.6982,-69.66213 l 8.4263,-3.18667 V 806.45779 c 0,-120.92861 -0.1872,-127.75109 -3.4697,-126.47601 -1.9083,0.74127 -88.8971,32.21091 -193.3085,69.93255 l -189.83891,68.58478 v 127.55341 c 0,70.15438 0.72464,127.55338 1.61029,127.55338 0.88567,0 84.08269,-29.9139 184.88232,-66.4755 z M 784.64946,662.7411 784.13879,539.36077 613.63073,477.46318 C 519.8513,443.4195 433.0855,411.98602 420.81784,407.611 l -22.30483,-7.95456 v 123.50623 123.50622 l 190.83024,69.49958 c 104.95663,38.22475 191.95223,69.60156 193.32356,69.72625 1.98334,0.18042 2.38887,-25.00907 1.98265,-123.15362 z m 224.68554,53.65224 192.152,-69.72808 V 524.07611 c 0,-96.79159 -0.5215,-122.57253 -2.4783,-122.51026 -1.3631,0.0434 -88.1289,31.05539 -192.8129,68.9156 l -190.33459,68.83672 -0.51067,123.40163 c -0.28086,67.87091 0.0159,123.40164 0.66092,123.40164 0.64438,0 87.63999,-31.37765 193.32354,-69.7281 z M 985.41234,446.20211 c 100.55076,-36.47237 183.31306,-66.80693 183.91636,-67.41016 0.6032,-0.60323 0.725,-1.38338 0.2706,-1.73367 -0.4543,-0.35028 -83.8,-31.09674 -185.21268,-68.32546 L 800,241.04425 615.61338,308.64632 c -101.41264,37.18114 -184.75836,67.9276 -185.21272,68.32546 -0.45436,0.39786 -0.33724,1.21225 0.26026,1.80975 1.81729,1.81729 365.13421,133.50829 368.65284,133.62509 1.80348,0.0599 85.54784,-29.73214 186.09858,-66.20451 z"
     id="path299"
     transform="scale(0.75)" />
  <path
     style="fill:#00ff00;stroke-width:1.98265"
     d="M 616.10905,444.56454 C 517.14994,408.52407 436.2003,378.51159 436.22097,377.87013 c 0.0549,-1.7039 362.86404,-134.11521 365.50891,-133.39662 7.49942,2.0375 359.39942,131.86336 360.65412,133.0555 1.6039,1.52392 -358.95019,133.17089 -363.66753,132.78375 -1.47497,-0.12104 -83.64832,-29.70773 -182.60742,-65.74822 z"
     id="path523"
     transform="scale(0.75)" />
  <path
     style="fill:#00ff00;stroke-width:1.98265"
     d="M 605.70012,719.59766 C 508.64932,684.28586 422.77571,653.0446 414.86989,650.17263 l -14.37423,-5.22177 V 524.06487 c 0,-101.41005 0.43809,-120.7827 2.7192,-120.24494 1.49556,0.35257 87.58059,31.42171 191.30007,69.04252 l 188.58086,68.40149 0.0258,121.43742 c 0.0139,66.79059 -0.19728,121.36141 -0.46983,121.26848 -0.27262,-0.093 -79.90087,-29.0604 -176.95168,-64.37218 z"
     id="path599"
     transform="scale(0.75)" />
  <path
     style="fill:#00ff00;stroke-width:1.98265"
     d="m 591.82156,1002.3092 -190.33457,-69.12054 -0.51031,-125.99055 -0.51031,-125.99054 12.40622,4.64251 c 6.82342,2.55339 92.92667,33.85182 191.34055,69.55208 l 178.93432,64.90955 V 945.9675 c 0,69.1107 -0.22305,125.6123 -0.49566,125.559 -0.27262,-0.053 -86.14622,-31.201 -190.83024,-69.2173 z"
     id="path638"
     transform="scale(0.75)" />
  <path
     style="fill:#00ff00;stroke-width:1.98265"
     d="m 589.34325,1280.286 -188.84759,-68.6532 v -120.5624 c 0,-66.3093 0.66915,-120.57644 1.48699,-120.59367 0.81785,-0.0172 86.9145,30.92537 191.3259,68.76137 l 189.83891,68.7927 v 120.5819 c 0,95.2118 -0.52144,120.555 -2.47832,120.4542 -1.36307,-0.07 -87.45972,-31.0216 -191.32589,-68.7809 z"
     id="path677"
     transform="scale(0.75)" />
  <path
     style="fill:#00d400;stroke-width:1.98265"
     d="m 816.87524,662.65229 0.0227,-121.38835 189.43396,-68.40149 c 104.1887,-37.62081 190.2751,-68.69888 191.3032,-69.06237 1.1573,-0.40918 1.8692,45.38891 1.8692,120.25215 v 120.91302 l -5.4523,1.93876 c -13.7594,4.89265 -366.92326,133.17914 -371.74717,135.03689 l -5.45229,2.09974 z"
     id="path827"
     transform="scale(0.75)" />
  <path
     style="fill:#00d400;stroke-width:1.98265"
     d="M 816.85254,945.88136 V 820.21442 l 5.45229,-1.9262 c 2.99876,-1.05942 87.53408,-31.60804 187.85627,-67.88584 100.3222,-36.27779 183.972,-66.38476 185.8885,-66.90436 3.3013,-0.89507 3.4576,5.64039 2.9739,124.33318 l -0.5105,125.27792 -173.482,62.94562 c -95.41514,34.62016 -181.28874,65.76896 -190.83026,69.21956 l -17.3482,6.274 z"
     id="path866"
     transform="scale(0.75)" />
  <path
     style="fill:#00d400;stroke-width:1.98265"
     d="m 816.85254,1228.616 v -120.5785 l 187.46816,-67.9872 c 103.1075,-37.3929 189.2042,-68.44106 191.3259,-68.99591 3.7907,-0.99128 3.8577,1.0903 3.8577,119.78741 v 120.7961 l -189.8389,68.8079 c -104.41137,37.8443 -190.50803,68.7946 -191.32587,68.7783 -0.81784,-0.016 -1.48699,-54.2899 -1.48699,-120.6081 z"
     id="path905"
     transform="scale(0.75)" />
</svg>
